<svg width="44" height="44" viewBox="0 0 44 44" fill="none" xmlns="http://www.w3.org/2000/svg">
<path d="M11.0007 21.9999C17.0763 21.9999 22.0015 17.0751 22.0015 11C22.0015 4.92486 17.0763 0 11.0007 0C4.9252 0 0 4.92486 0 11C0 17.0751 4.9252 21.9999 11.0007 21.9999Z" fill="#FFA500"/>
<path d="M11.534 0.00297567H0.0122011V11.524H11.534V0.00297567Z" fill="#FFA500"/>
<path d="M21.9984 10.4788H10.4766V21.9998H21.9984V10.4788Z" fill="#FFA500"/>
<path d="M32.999 21.9999C39.0745 21.9999 43.9997 17.0751 43.9997 11C43.9997 4.92486 39.0745 0 32.999 0C26.9234 0 21.9982 4.92486 21.9982 11C21.9982 17.0751 26.9234 21.9999 32.999 21.9999Z" fill="#FFA500"/>
<path d="M43.9968 11.5362V0.0151759H32.475V11.5362H43.9968Z" fill="#FFA500"/>
<path d="M33.5202 21.9969V10.4758H21.9984V21.9969H33.5202Z" fill="#FFA500"/>
<path d="M32.9993 43.9999C39.0748 43.9999 44 39.0751 44 33C44 26.9248 39.0745 21.9999 32.999 21.9999C26.9234 21.9999 21.9985 26.9248 21.9985 33C21.9985 39.0751 26.9237 43.9999 32.9993 43.9999Z" fill="#FFA500"/>
<path d="M32.4657 44H43.9876V32.479H32.4657V44Z" fill="#FFA500"/>
<path d="M22.0014 33.5209H33.5232V21.9999H22.0014V33.5209Z" fill="#FFA500"/>
<path d="M11.0007 43.9999C17.0763 43.9999 22.0015 39.0751 22.0015 33C22.0015 26.9248 17.0763 21.9999 11.0007 21.9999C4.9252 21.9999 0 26.9248 0 33C0 39.0751 4.9252 43.9999 11.0007 43.9999Z" fill="#FFA500"/>
<path d="M0 32.4635V43.9845H11.5218V32.4635H0Z" fill="#FFA500"/>
<path d="M10.4766 21.9998V33.5209H21.9984V21.9998H10.4766Z" fill="#FFA500"/>
</svg>
